#!OML:ASF F:\VICON\USERDATA\INSTALL\Justin_Nancy\Justin_Nancy.ASF
:FULLY-SPECIFIED
:DEGREES
49
root 0.634965 18.2728 -13.3403 8.85496 -2.53614 4.96313
lowerback 9.14849 -2.48987 -5.11221
upperback -0.0549968 -3.75374 2.03869
thorax -4.72232 -1.71419 5.49508
lowerneck -21.0641 -3.02167 -8.3764
upperneck 10.0444 -2.62701 6.02448
head 6.66151 -1.06587 3.01108
rclavicle -5.1684e-015 -7.95139e-016
rhumerus -64.2299 5.49683 -94.164
rradius 117.362
rwrist -5.80785
rhand -15.2 26.8124
rfingers 7.12502
rthumb 10.9718 -2.88091
lclavicle -5.1684e-015 -7.95139e-016
lhumerus -41.6327 -7.88726 90.2374
lradius 103.834
lwrist 28.0642
lhand -16.7274 9.74331
lfingers 7.12502
lthumb 9.49833 39.5092
rfemur -31.5724 1.10059 18.8081
rtibia 17.8041
rfoot 7.67715 -6.17495
rtoes -12.2194
lfemur 9.28218 -5.7203 -28.7411
ltibia 43.2789
lfoot 19.4517 -7.42073
ltoes -2.59508
50
root 0.628631 18.204 -12.9163 8.60381 -2.61012 4.83286
lowerback 9.13218 -2.50653 -4.87753
upperback 0.216832 -3.73932 2.17275
thorax -4.43477 -1.72807 5.48951
lowerneck -21.4704 -3.10026 -8.66871
upperneck 9.95994 -2.60355 5.97224
head 6.69977 -1.06468 3.04221
rclavicle 1.11319e-014 -2.3059e-014
rhumerus -63.0307 6.08025 -93.9854
rradius 117.018
rwrist -5.65531
rhand -15.23 27.0903
rfingers 7.12502
rthumb 10.943 -2.60451
lclavicle 1.11319e-014 -2.3059e-014
lhumerus -41.9494 -7.60435 90.3799
lradius 103.063
lwrist 27.8538
lhand -16.7466 9.69297
lfingers 7.12502
lthumb 9.47987 39.4597
rfemur -30.7909 1.16181 19.1451
rtibia 18.0289
rfoot 8.36609 -6.26785
rtoes -11.356
lfemur 8.56428 -5.48212 -28.4679
ltibia 46.7
lfoot 19.7778 -8.20748
ltoes -1.61027
51
root 0.625503 18.1265 -12.49 8.15122 -2.67757 4.29305
lowerback 9.29566 -2.45097 -4.23016
upperback 0.567727 -3.59003 2.37621
thorax -4.20315 -1.68087 5.31671
lowerneck -21.8311 -3.12223 -8.71034
upperneck 9.90441 -2.55579 5.77003
head 6.73235 -1.05621 2.98634
rclavicle 2.08724e-014 1.35174e-014
rhumerus -61.7495 6.48832 -93.6749
rradius 116.702
rwrist -5.84861
rhand -14.9127 26.9869
rfingers 7.12502
rthumb 11.2489 -2.69149
lclavicle 2.08724e-014 1.35174e-014
lhumerus -42.1725 -7.54902 90.4236
lradius 102.302
lwrist 27.9125
lhand -16.6456 9.45231
lfingers 7.12502
lthumb 9.57728 39.2146
rfemur -29.9054 1.12411 20.0307
rtibia 18.9054
rfoot 8.42237 -5.70122
rtoes -9.86266
lfemur 7.87867 -5.16783 -27.7056
ltibia 50.4003
lfoot 19.037 -8.80191
ltoes -3.66748
52
root 0.61543 18.0314 -12.082 7.8108 -2.9426 3.82598
lowerback 9.70729 -2.33443 -3.86405
upperback 0.593251 -3.39735 2.61834
thorax -4.43602 -1.58303 5.36724
lowerneck -21.6748 -3.02825 -8.9014
upperneck 10.0367 -2.37996 5.69643
head 6.73878 -0.989638 3.01504
rclavicle 2.38542e-014 2.14687e-014
rhumerus -60.9783 7.02414 -93.4411
rradius 116.431
rwrist -6.12152
rhand -14.8874 27.0492
rfingers 7.12502
rthumb 11.2733 -2.6279
lclavicle 2.38542e-014 2.14687e-014
lhumerus -42.7902 -7.29777 90.5648
lradius 101.475
lwrist 27.9105
lhand -16.8362 9.40942
lfingers 7.12502
lthumb 9.39339 39.1801
rfemur -29.462 1.10133 20.9224
rtibia 20.5408
rfoot 7.54762 -4.1025
rtoes 1.33862
lfemur 6.92197 -4.65915 -26.9334
ltibia 54.3267
lfoot 20.3774 -9.29267
ltoes 3.25666
53
root 0.595559 17.93 -11.7027 7.858 -2.87989 3.54409
lowerback 10.0443 -2.2919 -3.68541
upperback 0.515457 -3.32174 2.78937
thorax -4.71509 -1.53687 5.4617
lowerneck -21.7456 -3.05569 -8.90113
upperneck 10.2001 -2.39193 5.55306
head 6.80226 -1.00929 2.96677
rclavicle 2.127e-014 -1.98785e-014
rhumerus -59.8256 7.46766 -93.3033
rradius 116.066
rwrist -6.58762
rhand -14.8892 26.836
rfingers 7.12502
rthumb 11.2716 -2.84115
lclavicle 2.127e-014 -1.98785e-014
lhumerus -43.332 -7.13711 90.5747
lradius 100.619
lwrist 27.678
lhand -17.2394 9.44783
lfingers 7.12502
lthumb 9.00435 39.2357
rfemur -29.6538 0.870591 21.5883
rtibia 22.8426
rfoot 5.19211 -2.98756
rtoes 5.45589
lfemur 5.28272 -4.53093 -26.2288
ltibia 58.5302
lfoot 17.5694 -8.99235
ltoes -7.18584
54
root 0.583341 17.8124 -11.3059 7.50497 -3.20503 3.23524
lowerback 10.3171 -2.0355 -3.32915
upperback 0.785543 -2.94794 2.74889
thorax -4.64797 -1.36644 5.17354
lowerneck -21.8836 -3.19798 -8.73037
upperneck 10.1328 -2.61248 5.51262
head 6.81572 -1.10932 2.89808
rclavicle 5.56597e-015 2.14687e-014
rhumerus -58.5296 7.48587 -93.2524
rradius 115.85
rwrist -6.99461
rhand -14.8127 26.4299
rfingers 7.12502
rthumb 11.3454 -3.24321
lclavicle 5.56597e-015 2.14687e-014
lhumerus -43.6654 -7.30493 90.4097
lradius 99.8805
lwrist 27.6983
lhand -17.6869 9.41077
lfingers 7.12502
lthumb 8.57252 39.2167
rfemur -29.387 0.848439 22.2613
rtibia 25.7362
rfoot 1.79215 -3.46149
rtoes 5.46087
lfemur 4.00248 -3.94952 -25.6001
ltibia 62.727
lfoot 19.3053 -8.29135
ltoes 1.76246
55
root 0.571602 17.6861 -10.9119 7.16601 -3.12675 2.88043
lowerback 10.7743 -2.00835 -2.92015
upperback 0.819935 -2.86748 2.83907
thorax -4.89141 -1.32732 5.04995
lowerneck -21.4987 -3.12487 -8.76563
upperneck 10.0502 -2.54124 5.54171
head 6.72321 -1.07827 2.92252
rclavicle 9.14409e-015 9.54166e-015
rhumerus -57.6701 7.89857 -93.2125
rradius 115.729
rwrist -7.49177
rhand -14.4385 25.8184
rfingers 7.12502
rthumb 11.7063 -3.83448
lclavicle 9.14409e-015 9.54166e-015
lhumerus -44.4296 -7.04985 90.3296
lradius 99.3135
lwrist 27.8625
lhand -17.8785 9.54653
lfingers 7.12502
lthumb 8.38755 39.36
rfemur -28.9681 0.938921 22.8723
rtibia 28.8385
rfoot -1.70619 -4.82208
rtoes 5.10116
lfemur 2.3757 -3.50125 -24.6954
ltibia 66.9477
lfoot 19.0113 -7.83875
ltoes 1.57824
56
root 0.555679 17.5679 -10.5163 6.9151 -3.16314 2.6159
lowerback 11.1889 -1.98763 -2.70045
upperback 0.80067 -2.81093 2.98762
thorax -5.15226 -1.29477 5.09847
lowerneck -21.0961 -3.06159 -8.84559
upperneck 9.91527 -2.45363 5.4578
head 6.60831 -1.05105 2.91802
rclavicle 8.09054e-014 -1.59028e-014
rhumerus -56.4247 8.63024 -93.111
rradius 115.269
rwrist -8.09648
rhand -14.3845 25.5686
rfingers 7.12502
rthumb 11.7584 -4.08137
lclavicle 8.09054e-014 -1.59028e-014
lhumerus -45.2206 -6.56938 90.3352
lradius 98.7042
lwrist 27.9728
lhand -17.7575 9.87167
lfingers 7.12502
lthumb 8.50432 39.6804
rfemur -28.6768 1.58563 23.2155
rtibia 31.8849
rfoot -4.6487 -5.62597
rtoes 1.6134
lfemur 0.595431 -2.89479 -23.8168
ltibia 71.0201
lfoot 19.1495 -7.45111
ltoes 1.73574
57
root 0.538127 17.4622 -10.1121 6.59307 -3.33321 2.29248
lowerback 11.5274 -1.84135 -2.37208
upperback 1.01932 -2.57598 3.06465
thorax -5.14621 -1.18879 4.96878
lowerneck -21.422 -3.08273 -8.74788
upperneck 9.981 -2.46225 5.33251
head 6.67907 -1.05894 2.8594
rclavicle 3.47873e-014 9.54166e-015
rhumerus -54.7038 9.08953 -93.0288
rradius 114.837
rwrist -8.53855
rhand -14.564 25.4862
rfingers 7.12502
rthumb 11.5852 -4.17361
lclavicle 3.47873e-014 9.54166e-015
lhumerus -45.65 -6.28849 90.2513
lradius 98.039
lwrist 27.9896
lhand -17.2114 10.7592
lfingers 7.12502
lthumb 9.03139 40.5459
rfemur -28.2396 2.60988 23.5153
rtibia 34.6472
rfoot -6.83711 -6.86368
rtoes -4.47187
lfemur -0.988729 -2.27158 -22.9281
ltibia 74.9167
lfoot 19.1508 -7.03601
ltoes 1.21696
58
root 0.52303 17.3477 -9.71413 6.20732 -3.5386 1.86913
lowerback 11.9598 -1.62769 -1.99222
upperback 1.28088 -2.24132 3.19655
thorax -5.15418 -1.03413 4.85398
lowerneck -22.0402 -3.12618 -8.66659
upperneck 10.272 -2.46068 5.1173
head 6.86821 -1.06988 2.77519
rclavicle 4.69132e-014 -1.90833e-014
rhumerus -52.9661 9.50199 -92.8782
rradius 114.526
rwrist -8.84829
rhand -14.7572 25.1739
rfingers 7.12502
rthumb 11.3989 -4.49628
lclavicle 4.69132e-014 -1.90833e-014
lhumerus -45.9848 -5.98157 90.2963
lradius 97.3317
lwrist 28.1668
lhand -17.5721 12.8667
lfingers 7.12502
lthumb 8.68325 42.6681
rfemur -27.5247 3.54462 24.0542
rtibia 36.9847
rfoot -8.65788 -8.81794
rtoes -7.6132
lfemur -2.56678 -1.57602 -21.8818
ltibia 78.7732
lfoot 18.5414 -6.91549
ltoes -0.975958
59
root 0.510939 17.2354 -9.3275 5.92226 -3.7489 0.950244
lowerback 12.4262 -1.42652 -1.14063
upperback 1.50968 -1.84878 3.46418
thorax -5.22818 -0.857066 4.60457
lowerneck -22.3857 -3.13438 -8.42727
upperneck 10.2995 -2.45078 4.73437
head 6.92246 -1.08718 2.60957
rclavicle 4.09496e-014 7.95139e-016
rhumerus -51.1474 10.0313 -92.7009
rradius 114.27
rwrist -9.02031
rhand -14.97 25.008
rfingers 7.12502
rthumb 11.1936 -4.67337
lclavicle 4.09496e-014 7.95139e-016
lhumerus -46.2231 -5.62109 90.291
lradius 96.58
lwrist 28.4599
lhand -18.3028 14.9482
lfingers 7.12502
lthumb 7.9781 44.7776
rfemur -26.636 4.12941 25.2891
rtibia 38.823
rfoot -10.485 -10.3351
rtoes -7.92917
lfemur -4.35983 -0.666462 -20.1057
ltibia 82.617
lfoot 17.6058 -7.14811
ltoes -3.15792
60
root 0.50276 17.138 -8.95985 5.92708 -3.79031 -0.598358
lowerback 13.0851 -1.33768 0.32849
upperback 1.47971 -1.48336 3.97999
thorax -5.68184 -0.695682 4.28418
lowerneck -22.5195 -3.11863 -8.21184
upperneck 10.3782 -2.40793 4.26436
head 6.95719 -1.10154 2.42361
rclavicle -3.45885e-014 3.97569e-015
rhumerus -49.5651 10.7296 -92.4019
rradius 114.201
rwrist -8.95152
rhand -15.0536 25.0993
rfingers 7.12502
rthumb 11.113 -4.58641
lclavicle -3.45885e-014 3.97569e-015
lhumerus -46.6188 -5.09252 90.3677
lradius 95.7187
lwrist 28.8597
lhand -18.5334 13.9638
lfingers 7.12502
lthumb 7.7555 43.8016
rfemur -25.7916 4.29862 27.2454
rtibia 40.2011
rfoot -12.3232 -11.5189
rtoes -7.03294
lfemur -6.70962 0.226859 -17.5009
ltibia 86.4874
lfoot 16.5005 -7.76821
ltoes -4.96224
61
root 0.493453 17.0513 -8.59782 6.18694 -3.84735 -2.30241
lowerback 13.5045 -1.26345 1.87024
upperback 1.3899 -1.1024 4.58632
thorax -6.05595 -0.534213 4.00634
lowerneck -23.0044 -3.06839 -8.0272
upperneck 10.8558 -2.28169 3.78347
head 7.1754 -1.08079 2.24959
rclavicle 2.14687e-014 5.80451e-014
rhumerus -47.904 11.5891 -92.05
rradius 114.101
rwrist -8.75226
rhand -14.9773 25.0434
rfingers 7.12502
rthumb 11.1867 -4.63842
lclavicle 2.14687e-014 5.80451e-014
lhumerus -47.1459 -4.49164 90.534
lradius 94.9006
lwrist 29.1154
lhand -18.5267 11.0782
lfingers 7.12502
lthumb 7.76197 40.9157
rfemur -25.0184 4.38976 29.3148
rtibia 41.2112
rfoot -14.2291 -12.4403
rtoes -3.99725
lfemur -9.52294 1.35742 -14.6006
ltibia 90.2206
lfoot 16.4569 -8.83698
ltoes -2.76308
62
root 0.488062 16.982 -8.23108 6.55886 -3.61059 -3.2991
lowerback 13.4405 -1.24226 2.85804
upperback 1.37784 -0.905999 4.96933
thorax -6.05456 -0.458057 3.81792
lowerneck -23.5423 -3.00851 -7.95886
upperneck 11.1896 -2.14682 3.59255
head 7.3605 -1.03192 2.19147
rclavicle 2.38542e-015 7.15625e-015
rhumerus -45.9082 12.4809 -91.6862
rradius 113.965
rwrist -8.3252
rhand -15.0822 24.9434
rfingers 7.12502
rthumb 11.0855 -4.74387
lclavicle 2.38542e-015 7.15625e-015
lhumerus -47.689 -3.92379 90.6821
lradius 94.4552
lwrist 29.0052
lhand -18.4491 10.5296
lfingers 7.12502
lthumb 7.83689 40.3643
rfemur -24.2576 4.11945 30.5354
rtibia 41.8614
rfoot -15.8568 -13.0181
rtoes -3.0389
lfemur -12.6673 2.14568 -12.6382
ltibia 93.5703
lfoot 15.9959 -9.5797
ltoes -2.20779
63
root 0.489184 16.927 -7.8631 6.832 -3.4629 -3.35026
lowerback 13.3621 -1.14952 2.94541
upperback 1.38962 -0.76958 5.06376
thorax -6.00456 -0.392341 3.84137
lowerneck -23.7198 -2.91703 -7.90975
upperneck 11.1038 -2.01428 3.54215
head 7.35088 -0.968758 2.18313
rclavicle 3.18055e-015 2.3059e-014
rhumerus -43.6324 13.4891 -91.2796
rradius 113.692
rwrist -8.11552
rhand -14.963 24.7821
rfingers 7.12502
rthumb 11.2005 -4.89891
lclavicle 3.18055e-015 2.3059e-014
lhumerus -48.2714 -3.30273 90.7788
lradius 94.3372
lwrist 28.6792
lhand -18.5067 12.023
lfingers 7.12502
lthumb 7.78126 41.8598
rfemur -23.2195 3.62482 30.6281
rtibia 42.0615
rfoot -17.1507 -13.3314
rtoes -4.26928
lfemur -15.7195 2.80207 -12.0999
ltibia 96.3561
lfoot 14.9624 -9.71031
ltoes -2.55437
